/* XPM */
static char *dejacoin16x161663876311[] = {
/* columns rows colors chars-per-pixel */
"16 16 48 1 ",
"  c None",
". c #699E4D",
"X c #6DA450",
"o c #6FA651",
"O c #70A751",
"+ c #73AC54",
"@ c #74AE55",
"# c #75AF55",
"$ c #75AF56",
"% c #77B257",
"& c #7DBB5C",
"* c #80C05E",
"= c #83C460",
"- c #85C761",
"; c #87CA62",
": c #87CA63",
"> c #88CC64",
", c #8ACF65",
"< c #8BD166",
"1 c #8CD266",
"2 c #8ED568",
"3 c #8FD669",
"4 c #90D769",
"5 c #93DD6B",
"6 c #95DF6D",
"7 c #95E06D",
"8 c #99E56F",
"9 c #9AE671",
"0 c #9CE972",
"q c #9CEA72",
"w c #9EED73",
"e c #A1F176",
"r c #A5F778",
"t c #A6F979",
"y c #A7FA7A",
"u c #A7FB7A",
"i c #A8FB7B",
"p c #A8FC7B",
"a c #A8FD7B",
"s c #A9FD7B",
"d c #A9FE7B",
"f c #A9FD7C",
"g c #A9FE7C",
"h c #AAFE7C",
"j c #AAFF7C",
"k c #ABFF7C",
"l c #ABFF7D",
"z c #ACFF7D",
/* pixels */
"                ",
"                ",
"     ahhha      ",
"    hhhhhhi     ",
"    hhhhhhhq    ",
"   ahhhhttha    ",
"   hh7O3@1hh:   ",
"   hz,*X.8zh3   ",
"   hh,=%-#az4   ",
"   hh5X1X:zz,   ",
"   hhhhhwaza@   ",
"   phhhhkake    ",
"    hhhhhhh&    ",
"     hhhha1     ",
"      9q7#      ",
"                "
};
