/* XPM */
static char *dejacoin32x321663876310[] = {
/* columns rows colors chars-per-pixel */
"32 32 101 2 ",
"   c None",
".  c #3E5D2D",
"X  c #3F5E2E",
"o  c #476A34",
"O  c #476B34",
"+  c #486B34",
"@  c #486C35",
"#  c #4B7037",
"$  c #4C7137",
"%  c #4F7639",
"&  c #537C3C",
"*  c #547D3D",
"=  c #547E3E",
"-  c #598641",
";  c #5A8641",
":  c #5A8742",
">  c #5B8643",
",  c #5B8842",
"<  c #5C8A43",
"1  c #5E8E45",
"2  c #5F8D46",
"3  c #679B4B",
"4  c #67994C",
"5  c #689B4C",
"6  c #689C4C",
"7  c #699C4C",
"8  c #699D4C",
"9  c #6A9E4E",
"0  c #6A9F4E",
"q  c #6BA04E",
"w  c #6DA250",
"e  c #6DA351",
"r  c #70A752",
"t  c #71AA53",
"y  c #72AB53",
"u  c #73AA55",
"i  c #78B457",
"p  c #79B558",
"a  c #7AB659",
"s  c #7AB759",
"d  c #7CB85B",
"f  c #7CBA5A",
"g  c #7DBB5B",
"h  c #7EBC5C",
"j  c #81C05F",
"k  c #82C35F",
"l  c #83C45F",
"z  c #89CC64",
"x  c #8ACE65",
"c  c #8BD065",
"v  c #8BD166",
"b  c #8DD267",
"n  c #8DD368",
"m  c #91D96A",
"M  c #92DC6B",
"N  c #95DF6C",
"B  c #96E06E",
"V  c #98E36F",
"C  c #98E46F",
"Z  c #98E470",
"A  c #99E470",
"S  c #99E570",
"D  c #99E670",
"F  c #9CE973",
"G  c #9CEA72",
"H  c #9DEA72",
"J  c #9DEB72",
"K  c #9EED74",
"L  c #9FEE74",
"P  c #A0F175",
"I  c #A1F175",
"U  c #A2F276",
"Y  c #A3F377",
"T  c #A3F477",
"R  c #A5F579",
"E  c #A4F678",
"W  c #A5F778",
"Q  c #A5F679",
"!  c #A5F779",
"~  c #A6F879",
"^  c #A6F979",
"/  c #A6F87A",
"(  c #A7F97A",
")  c #A7FA7A",
"_  c #A7FB7A",
"`  c #A7FA7B",
"'  c #A7FB7B",
"]  c #A8FB7B",
"[  c #A8FC7B",
"{  c #A9FC7B",
"}  c #A9FD7B",
"|  c #A9FE7C",
" . c #AAFE7C",
".. c #AAFF7C",
"X. c #ABFF7C",
"o. c #ABFF7D",
"O. c #ACFF7D",
"+. c #ACFF7E",
"@. c #ADFF7E",
"#. c #AEFF7F",
"$. c #B0FF80",
/* pixels */
"                                                                ",
"                                                                ",
"                                                                ",
"                          Q / { / Q                             ",
"                      ] ............{ /                         ",
"                    { ..................]                       ",
"                  { ....................{ I                     ",
"                ] ........................#.C                   ",
"              / ..........................{ { d                 ",
"              { ..........................{ #.J                 ",
"            / ..........{ ..{ #...#...........{ e               ",
"            ] ............#.{ { ..C I ......{ { n               ",
"            { ......{ J l c / { Q - h { ......#.K               ",
"            ........#.q X @ - W 2 O - W ......../               ",
"          Q ........#.6 i / $ h $ J _ { ........{ 2             ",
"          / ........#.6 i $.6 t - % M ..........{ 0             ",
"          / ....{ { #.6 i #.0 e Q 3 X C #.........e             ",
"          / ....X.{ #.6 a #.& z ..$.& l ..........4             ",
"          Q ....{ #.#.6 + * * D < , O D ......../ -             ",
"            ....{ { { B t d I ..a O N ........../               ",
"            { ..{ ....#.#.......K v #.{ { ....#.J               ",
"            { ......{ { ........{ #.............z               ",
"            Q ..................{ ............] 2               ",
"              { ..............................D                 ",
"              Q ............................] 5                 ",
"                / ..........................n                   ",
"                  ......................#.V                     ",
"                    ` ..................B                       ",
"                      J T / #.......Y z                         ",
"                          z v m z u                             ",
"                                                                ",
"                                                                "
};
