/* XPM */
static char *dejacoin128x1281663876310[] = {
/* columns rows colors chars-per-pixel */
"128 128 77 1 ",
"  c None",
". c #010100",
"X c #060904",
"o c #090D06",
"O c #0D1309",
"+ c #121B0D",
"@ c #15200F",
"# c #172211",
"$ c #192512",
"% c #1D2B15",
"& c #202F17",
"* c #203017",
"= c #223319",
"- c #26391C",
"; c #283D1D",
": c #2A401F",
"> c #2E4421",
", c #324B25",
"< c #375228",
"1 c #39562A",
"2 c #3C5A2C",
"3 c #41612F",
"4 c #446432",
"5 c #486737",
"6 c #476A34",
"7 c #4A6E36",
"8 c #476538",
"9 c #4D6E3B",
"0 c #4E7339",
"q c #51763E",
"w c #537B3D",
"e c #567C41",
"r c #587E43",
"t c #55803E",
"y c #578340",
"u c #5A8543",
"i c #5E8C45",
"p c #5F8948",
"a c #618D4A",
"s c #619247",
"d c #64944A",
"f c #68964F",
"g c #66994B",
"h c #699C4D",
"j c #6B9A51",
"k c #6CA24F",
"l c #6EA350",
"z c #71A554",
"x c #73AC54",
"c c #74A758",
"v c #77B157",
"b c #78B357",
"n c #7AB45A",
"m c #7DBB5C",
"M c #81BE61",
"N c #83C35F",
"B c #85C562",
"V c #86C962",
"C c #8ACC65",
"Z c #8CCF68",
"A c #8CD166",
"S c #8ED469",
"D c #90D769",
"F c #93DA6C",
"G c #94D671",
"H c #96DD71",
"J c #99DE74",
"K c #96E16E",
"L c #98E36F",
"P c #9AE472",
"I c #9EEA74",
"U c #A0EE76",
"Y c #A1EE78",
"T c #A2F276",
"R c #A4F578",
"E c #A7F97A",
"W c #AAFF7C",
/* pixels */
"                                                                                                                                ",
"                                                                                                                                ",
"                                                                                                                                ",
"                                                                                                                                ",
"                                                                                                                                ",
"                                                                                                                                ",
"                                                                                                                                ",
"                                                                                                                                ",
"                                                                                                                                ",
"                                                                                                                                ",
"                                                                                                                                ",
"                                                                                                                                ",
"                                                         HJIIPIPJJ                                                              ",
"                                                    GPYRREEWWEWWEEERYPG                                                         ",
"                                                  PREEWWEWWWWWWWWWEWWEERP                                                       ",
"                                                YREWWWWWWWWWWWWWWWWWWWWWERYJ                                                    ",
"                                              YEWWWWWWWWWWWWWWWWWWWWWWWWWWWEU                                                   ",
"                                            PREWWWWWWWWWWWWWWWWWWWWWWWWWWWWWWRP                                                 ",
"                                           RWWWWWWWWWWWWWWWWWWWWWWWWWWWWWWWWWWERJ                                               ",
"                                         PEEWWWWWWWWWWWWWWWWWWWWWWWWWWWWWWWWWWWWEP                                              ",
"                                        IEWWWWWWWWWWWWWWWWWWWWWWWWWWWWWWWWWWWWWWWEU                                             ",
"                                       UEWWWWWWWWWWWWWWWWWWWWWWWWWWWWWWWWWWWWWWWWWEP                                            ",
"                                      REWWWWWWWWWWWWWWWWWWWWWWWWWWWWEWWWWWWWWWWWWWWWP                                           ",
"                                     UEWWWWWWWWWWWWWWWWWEWWWWWWWWWWWWWWWWWWWWWWWWWWWEPa                                         ",
"                                    UEWWWWWWWWWWWWWWWWWWWWWWWWWWWWWWWWWWWWWWWWEWWWWWWWPw                                        ",
"                                   UWWWWWWWWWWWWWWWWWWWWWWWWWWWWWWWWWWWWWWWWWWWWWWWWWWEF                                        ",
"                                  YWWWWWWWWWWWWWWWWWWWWWWWWWWWWWWWWWWWWWWWWWWWWWWWWWWWWWD                                       ",
"                                 FRWWWWWWWWWWWWWWWWWWWWWWWWWWWWWWWWWWWWWWWWWWWWWWWWWWWWWEn                                      ",
"                                 RWWWWWWWWWWWWWWWWWWWWWWWWWWWWWWWWWWWWWWWWWWWWWWWWWWWWWWWYf                                     ",
"                                YWWWWWWWWWWWWWEWWWWWWWWWWWWWWWWWWWWWWWWWWWWWWWWWWWWWWWWWWWP8                                    ",
"                               PEWWWWWWWWWWWWWWWWWWWWWWWWWWWWWWWWWWWWWWWWWWWWWWWWWWWWWWWWWWB                                    ",
"                               RWWWWWWWWWWWWWWWWWWWWWWWWWWWWWWWWWWWWWWWWWWWWWWWWWWWWWWWWWWWRf                                   ",
"                              YWWWWWWWWWWWWWWWWWWWWWWWWWWWWWWWWWWWWWWWWWWWWWWWWWWWWWWWWWWWWWH                                   ",
"                             JEEWWWWWWWWWWWWWWWWWWWWWWWWWWWWWWWWEWWWWWWWWWWWWWWWWWWWWWWWWWWWEn                                  ",
"                             TWWWWWEWWWWWWWWWWWWWWWWWWWWWWWWWWWEWWWWWWWWWWWWWWWWWEWWWWWWWWWWWU8                                 ",
"                            JEWWWWWWWWWWWWWWWWWWWWWWWWWWWWWWWWWWWWWWWWWWWWWWWWWWWWWWWWWWWWWWWEm                                 ",
"                            TWWWWWWWWWWWWWWWWWWWWWWWWWWWWWWWWWWWWWWWWWWWWWWWWWWWWWWWWWWWWWWWWWU4                                ",
"                           PWWWWWWWWWWWWWWWWWWWWWWWWWWWWWWWWWWWWWWWWWWWWWWWWWWWWWWWWWWWWWWWWWWEM                                ",
"                           TWWWWWWWWWWWWWWWWWWWWWWWWWWWWWWWWWWWWWWWWWWWWWWWWWWWWWWWWWWWWWWWWWWWI                                ",
"                           EWWWWWWWWWWWWWWWWWWWWWWWWWWWWWWWWWWWWWWWWWWWWWWWWWWWWWWWWWWWWWWWWWWWEz                               ",
"                          YWWWWWWWWWWWWWWWWWWWWWWWWWWWWWWWWWWWWWWWWWWWWWWWWWWWWWWWWWWWWWWWWWWWWWP                               ",
"                          EWWWWWWWWWWWWWWWWWWWEWWWWWWWWWWWWWWWWWWWWWWWWWWWWWWWWWWWWWWWWWWWWWWWWWRp                              ",
"                         IEWWWWWWWWWWWWWWWWWWWWWWWWWWWWWWWWWWWWWWWWWWWWWWWWWWWWWWWWWWWWWWWWWWWWWEB                              ",
"                         IWWWWWWWWWWWWWWWWWWWWWWWWWWWWWWWWWWWWWWWWWWWWWWWWWWWWWWWWWWWWWWWWWWWWWWWP                              ",
"                         RWWWWWWWWWWWWWWWWWWWWWWWWWWWWWWWWWWWWWWWWWWWWWWWWWWWWWWWWWWWWWWWWWWWWWWWEa                             ",
"                        IWWWWWWWWWWWWWWWWWWWWWWWWWWWWWWWWWWWWWWWWWWWWWWWWWWWWWWWWWWWWWWWWWWWWWWWWEB                             ",
"                        YWWWWWWWWWWWWWWWWWWWWWWWWWWWWWWWWWWWWWWWWWWWWWKnKWWWWWWWWWWWWWWWWWWWWWWWWWP                             ",
"                        EWWWWWWWWWWWWWWWWWWWWWWWWWWWWWWWWWWWWWWWWWWWWWuOsWWWWWWWWWWWWWWWWWWWWWWWWWRw                            ",
"                        EWWWWWWWWWWWWWWWWWWWWWWWWWWWWWWWWWWWWWWWWWWWWE6.sWWWWWWWWWWWWWWWWWWWWWWWWWEc                            ",
"                       IWWWWWWWWWWWWWWWWWWWWWWWWWWWWWWWWWWWWWWWWWWWWWR1.kWWWWWWWWWWWWWWWWWWWWWWWWWWC                            ",
"                       UWWWWWWWWWWWWWWWWWWWWWWWERRREEWWWWWWWWWWWWWWWWT,ovWWWWWWWWWWWWWWWWWWWWWWWWWWJ                            ",
"                       RWWWWWWWWWWWWWWWWWWWWWWV633336wlDEWWWWWWWWWWPxq+.3nYWWWWWWWWWWWWWEWWWWWWWWWWR9                           ",
"                       EWWWWWWWWWWWWWWWEWWWWWEw.......o%wLWWWWWWWWN>o....O<AWWWWWWWWWWWWWWWWWWWWWWWEa                           ",
"                      PEWWWWWWWWWWWWWWWWWWWWWE7..oooo....<FWWWWWWZ=..oOoX..wWWWWWWWWWWWWWWWWWWWWWWWWn                           ",
"                      IEWWWWWWWWWWWWWWWWWWWWWW7.+hMnxs,O..<PWWWWR4.X,hMma>X6WWWWWWWWWWWWWWWWWWWWWWWWZ                           ",
"                      IWWWWWWWWWWWWWWWWWWWWWWW7.#FWWWWIs+XXaWWWWD$.>FWWWWLslWWWWWWWWWWWWWWWWWWWWWWWWF                           ",
"                      YWWWWWWWWWWWWWWWWWWWWWWW7.#DWWWWWWdo.&FWWWvoXhWWWWWWWEWWWWWWWWWWWWWWWWWWWWWWWWP                           ",
"                      REWWWWWWWWWWWWWWWWWWWWWE7.#DWWWWWWY1.XjWWWh.onWWWWWWWWWWWWWWWWWWWWWWWWWWWWWWWWU4                          ",
"                      EWWWWWWWWWWWWWWWWWWWWWWW7.#FWWWWWWWvo.2RWWh.XxWWWWWWWWWWWWWWWWWWWWWWWWWWWWWWWWRq                          ",
"                      EWWWWWWWWWWWWWWWWWWWWWEE7.#FWWWWWWWK&.&UWWxo.qWWWWWWWWWWWWWWWWWWWWWWWWWWWWWWWWRa                          ",
"                      EWWWWWWWWWWWWWWWWWWWWWWE7.#FWWWWWWWR1.+CWWZ+.+vWWWWWWWWWWWWWWWWWWWWWWWWWWWWWWWWf                          ",
"                      EWWWWWWWWWWWWWWWWWWWWWWW7.@FWWWWWWWWw.onWWR3..$sPWWWWWWWWWWWWWWWWWWWWWWWWWWWWWEz                          ",
"                     JWWWWWWWWWWWWWWWWWWWWWWWW9.@FWWWWWWWWa.XxWWWV%..o>gLWWWWWWWWWWWWWWWWWWWWWWWWWWWEn                          ",
"                     IWWWWWWWWWWWWWWWWWWWWWWWE7.#FWWWWWWWWg.XhWWWEx&...o>lTWWWWWWWWWWWEWWWWWWWWWWWWWWM                          ",
"                     PWWWWWWWWWWWWWWWWWWWWWWWE7.$FWWWWWWWWgXXlWWWWWZ6+...o0UWWWWWWWWWWWWWEWWWWWWWWWWWm                          ",
"                     PEWWWWWWWWWWWWWWWWWWWWWWE7.#FWWWWWWWWs.XxWWWWWWTM4+..ouEWWWWWWWWWWWWWWWWWWWWWWWWn                          ",
"                     PWWWWWWWWWWWEWWWWWWWWWWWW7.#FWWWWWWWWt.onWWWWWWWWRM>..$AWWWWWWWWWWWWWWWWWWWWWWWEn                          ",
"                     IEWWWWWWWWWWWWWWWWWWWWWWW7.#DWWWWWWWW6.OVWWWWWWWEWWD:..sWWWWWWWWWWWWWWWWWWWWWWWWM                          ",
"                     JEWWWWWWWWWWWWWWWWWWWWWWW7.#FWWWWWWWU,.&HWWWWWWWWWWWzo.3WWWWWWWWWWWWWWWWWWWWWWWWm                          ",
"                      WWWWWWWWWWWWWWWWWWWWWWWE7.#DWWWWWWWD$.,TWWWWWWWWWWWF+.1RWWWWWWWWWWWWWWWWWWWWWWEz                          ",
"                      EWWWWWWWWWWWWWWWWWWWWWWW7.+DWWWWWWWs..tWWWWWWWWWWWWH$.1RWWWWWWWWWWWWWWWWWWWWWWEh                          ",
"                      EWWWWWWWWWWWWWWWWWWWWWWW7.&GWWWWWWH-.+BWWWWWWWWWWWWNO.7WWWWWWWWWWWWWWWWWWWWWWWEa                          ",
"                      REWWWWWWWWWWWWWWWWWWWWWE7.+FWWWWWU4..3TEWEvVEWWWWEE0.XhWWWWWWWWWWWWWWWWWWWWWWWRe                          ",
"                      RWWWWWWWWWWWWWWWWWWWWWWW7.+SWRRLM2X.#NWWWU,%iSTERKaO.&FWWWWWWWWWWWWWWWWWWWWWWWT5                          ",
"                      REWWWWEWWWWWWWWWWWWWWWWE7.O<331;O..+jWWWWT>.X$<41=X.ogWWWWWWWWWWWWWWWWWWWWWWWWP                           ",
"                      YWWWWWWWWWWWWWWWWWWWWWWW7.X.......%kEWWWWWuO.......OwTWWWWWWWWWWWWWWWWWWWWWWWWF                           ",
"                      IEWWWWWWWWWWWWWWWWWWWWWWs+OOOo+$:tSEWWWWWWTx2%X.o%1vRWWWWWWWWWWWWWWWWEWWWWWWWWZ                           ",
"                      PEWWWWWWWWWWWWWWWWWWWWWWUMvbnMMVIEWWWWWWWWWWTN&osAUWWWWWWWWWWWWWWWWWWWWWWWWWWWM                           ",
"                       EWWWWWWWWWWWWWWWWWWWWWWWWWWWWWWWWWWWWWWWWWWWI&OAWWWWWWWWWWWWWWWWWWWWWWWWWWWWEf                           ",
"                       EWWWWWWWWWWWWWWWWWWWWWWWWWWWWWWWWWWWWWWWWWWWF$+FWWWWWWWWWWWWWWWWWWWWWWWWWWWWRq                           ",
"                       YEWWWWWWWWWWWWEWWWWWWWWWWWWWWWWWWWWWWWWWWWWWZO&KWWWWWWWWWWWWWWWWWWWWWWWWWWWEP                            ",
"                       IWWWWWWWWWWWWWWWWWWWWWWWWWWWWWWWWWWWWWWWWWWWA&,UWWWWWWWWWWWWWWWWWWWWWWWWWWWWA                            ",
"                       PEWWWWWWWWWWWWWWWWWWWWWWWWWWWWWWWWWWWWWWWWWWRAFWWWWWWWWWWWWWWWWWWWWWWWWWWWWEn                            ",
"                        EWWWWWWWWWWWWWWWWWWWWWWWWWWWWWWWWWWWWWWWWWWWWWWWWWWWWWWWWWWWWWWWWWWWWWWWWWRp                            ",
"                        RWWWWWWWWWWWWWWWWWWWWWWWWWWWWWWWWWWWWWWWWWWWWWWWWWWWWWWWWWWWWWWWWWWWWWWWWWP                             ",
"                        YEWWWWWWWWWWWWWWWWWWWWWWWWWWWWWWWWWWWWWWWWWWWWWWWWWWWWWWWWWWWWWWWWWWWWWWWWC                             ",
"                         EEWWWWWWWWWWWWWWWWWWWWWWWWWWWWWWWWWWWWWWWWWWWWWWWWWWWWWWWWWWWWWWWWWWWWWWRj                             ",
"                         YWWWWWWWWWWWWWWWWWWWWWWWWWWWWWWWWWWWWEWWWWWWWWWWWWWWWWWWWWWWWWWWWWWWWWWWU                              ",
"                         UEWWWWWWWWWWWWWWWWWWWWWWWWWWWWWWWWWWWWWWWWWWWWWWWWWWWWWWWWWWWWWWWWWWWWWWZ                              ",
"                          EWWWWWWWWWWWWWWWWWWWWWWWWWWWWWWWWWWWWWWWWWWWWWWWWWWWWWWWWWWWWWWWWWWWWWRf                              ",
"                          RWWWWWWWWWWWWWWWWWWWWWWWWWWWWWWWWWWWWWWWWWWWWWWWWWWWWWWWWWWWWWWWWWWWWWP                               ",
"                          PEWWWWWWWWWWWWWWWWWWWWWWWWWWWWWWWWWWWWWWWWWWWWWWWWWWWWWWWWWWWWWWWWWWWEn                               ",
"                           RWWWWWWWWWWWWWWWWWWWWWWWWWWWWWWWEWWWWWWWWWWWWWWWWWWWWWWWWWWWWWWWWWWWU5                               ",
"                           PEWWWWWWWEWWWWWWWWWWWWWWWWWWWWWWWWWWWWWWWWWWWWWWWWWWWWWWWWWWWWWWWWWWV                                ",
"                            REWWWWWWWWWWWWWWWWWWWWWWWWWWWWWWWWWWWWWWWWWWWWWWWWWWWWWWWWWWWWWWWWIw                                ",
"                            PWWWWWWWWWWWWWWWWWWWWWWWWWWWWWWWWWWWWWWWWWWWWWWWWWWWWWWWWWWWWWWWWWN                                 ",
"                             RWWWWWWWWWWWWWWWWWWWWWWWWWWWWWWWWWWWWWWWWWWWWWWWWWWWWWWWWWWWWWWEUq                                 ",
"                             PWWWWWWWWWWWWWWWWWWWWWWWWWWWWWWWWWWWWWWWWWWWWWWWWWWWWEWWWWWWWWWWB                                  ",
"                              YWWWWWWWWWWEWWWWWWWWWWWWWWWWWWWWWWWWWWWWWWWWWWWWWWWWWWWWWWWWWWI4                                  ",
"                               EWWWWWWWWWWWWWWWWWWWWWWWWWWWWWWWWWWWWWWWWWWWWWWWWWWWWWWWWWWEEc                                   ",
"                               PWWWWWWWWWWWWWWWWWWWWWWWWWWWWWWWWWWWWWWWWWWWWWWWWWWWWWWWWWWWD                                    ",
"                                RWWWWWWWWWWWWWWWWWWWWWWWWWWWWWWWWWWWWWWWWWWWWWWWWWWWWWWWWWYr                                    ",
"                                GEWWWWWWWWWWWWWWWWWWWWWWWWWWWWWWWWWWWWWWWWWWWWWWWWWWWWWWWRc                                     ",
"                                 PEWWWWWWWWWWWWWWWWWWWWWWWWWWWWWWWWWWWWWWWWWWWWWWWWWWWWWWB                                      ",
"                                  YEWWWWWWWWWWWWWWWWWWWWWWWWWWWWWWWWWWWWWWWWWWWWWWWWWWWWJ                                       ",
"                                   UWWWWWWWWWWWWWWWWWWWWEWWWWWWWWWWWWWWWWWWWWWWWWWWWWWWPr                                       ",
"                                    REWWWWWWWWWWWWWWWWWWWWWWWWWWWWWWWWWEWWWWWWWWWWWWWWUa                                        ",
"                                     RWWWWWWWWWWWWWWWWWWWWWWWWWWWWWWWWWWWWWWWWWWWWWWWTf                                         ",
"                                      RWWWWWWWWWWWWWWWWWWWWWWWWWWWWWWWWWWWWWWWWWWWWEUj                                          ",
"                                       UWWWWWWWWWWWWWWWWWWWWWWWWWWWWWWWWWWWWWWWWWWWUf                                           ",
"                                        UEWWWWWWWWWWWWWWWWWWWWWWWWWWWWWWWWWWWWWWWWKu                                            ",
"                                         UEWWWWWWWWWWWWWWWWWWWWWWWWWWWWWWWWWWWWWEDq                                             ",
"                                          PREWWWWWWWWWWWWWWWWWWWWWWWWWWWWWWWWWWRM                                               ",
"                                            PRWWWWWWWWWWWWWWWWWWWWWWWWWWWWWWWEHf                                                ",
"                                             mIEWWWWWWWWWWWWWWWWWWWWWWWWWWWEUn                                                  ",
"                                               MUWWWWWWWWWWWWWWWWWWWWWWWWEUB9                                                   ",
"                                                8bHUEWWEWWWWWWWWWWWWWWERHm5                                                     ",
"                                                   aMHUEWWWWWEWWWWEEUJMa                                                        ",
"                                                      9fnCDJPKPPDCnj9                                                           ",
"                                                                                                                                ",
"                                                                                                                                ",
"                                                                                                                                ",
"                                                                                                                                ",
"                                                                                                                                ",
"                                                                                                                                ",
"                                                                                                                                ",
"                                                                                                                                ",
"                                                                                                                                "
};
