/* XPM */
static char *dejacoin64x641663876310[] = {
/* columns rows colors chars-per-pixel */
"64 64 222 2 ",
"   c None",
".  c #060904",
"X  c #060905",
"o  c #070B05",
"O  c #090E07",
"+  c #0A0F07",
"@  c #0C1309",
"#  c #0D1309",
"$  c #0D140A",
"%  c #0E140A",
"&  c #0E150A",
"*  c #0E160B",
"=  c #0F160B",
"-  c #0F170B",
";  c #10170B",
":  c #10190C",
">  c #11190C",
",  c #111A0C",
"<  c #111A0D",
"1  c #131C0D",
"2  c #131D0E",
"3  c #141D0E",
"4  c #141E0F",
"5  c #182411",
"6  c #1A2613",
"7  c #1B2914",
"8  c #1D2C15",
"9  c #1F2E17",
"0  c #25371B",
"q  c #273A1C",
"w  c #283B1D",
"e  c #2A3E1E",
"r  c #2A3F1F",
"t  c #2B401F",
"y  c #2C4220",
"u  c #2E4522",
"i  c #2F4722",
"p  c #314923",
"a  c #314924",
"s  c #344D26",
"d  c #354F27",
"f  c #365127",
"g  c #39562A",
"h  c #3B582B",
"j  c #3C592C",
"k  c #3C5A2C",
"l  c #3D5B2C",
"z  c #405F2E",
"x  c #416130",
"c  c #436431",
"v  c #436531",
"b  c #466734",
"n  c #466933",
"m  c #476935",
"M  c #486B34",
"N  c #486836",
"B  c #4C7237",
"V  c #4D7338",
"C  c #4D723A",
"Z  c #4F733B",
"A  c #4D7438",
"S  c #4F7639",
"D  c #4F773A",
"F  c #527A3C",
"G  c #527B3C",
"H  c #547B3F",
"J  c #537C3C",
"K  c #547D3D",
"L  c #557F3E",
"P  c #577F41",
"I  c #578041",
"U  c #598541",
"Y  c #5A8641",
"T  c #5D8B44",
"R  c #5E8D44",
"E  c #608F46",
"W  c #618F49",
"Q  c #619147",
"!  c #619247",
"~  c #62904A",
"^  c #64934A",
"/  c #639448",
"(  c #679A4B",
")  c #67984D",
"_  c #699C4C",
"`  c #6A9C4F",
"'  c #6B9D50",
"]  c #6C9F50",
"[  c #6BA04E",
"{  c #6CA24F",
"}  c #6DA24F",
"|  c #6DA34F",
" . c #6CA050",
".. c #6DA350",
"X. c #6FA551",
"o. c #70A553",
"O. c #71A753",
"+. c #71A654",
"@. c #72AA53",
"#. c #73A955",
"$. c #74AD54",
"%. c #76AF57",
"&. c #76AF58",
"*. c #76B156",
"=. c #77B156",
"-. c #77B257",
";. c #77B158",
":. c #79B558",
">. c #7CB85C",
",. c #7EBB5D",
"<. c #7FBB5E",
"1. c #7FBE5D",
"2. c #7FBC5E",
"3. c #81C15E",
"4. c #83C361",
"5. c #84C362",
"6. c #83C560",
"7. c #84C461",
"8. c #84C660",
"9. c #84C661",
"0. c #87C964",
"q. c #88CC63",
"w. c #89CB65",
"e. c #8BCF65",
"r. c #8BCF66",
"t. c #8BD065",
"y. c #8BD066",
"u. c #8CD166",
"i. c #8DD267",
"p. c #8ED567",
"a. c #8DD268",
"s. c #8ED369",
"d. c #8FD469",
"f. c #8FD668",
"g. c #8FD56A",
"h. c #90D76A",
"j. c #91D76B",
"k. c #91D969",
"l. c #91D96A",
"z. c #92D96B",
"x. c #92DB6B",
"c. c #93DC6B",
"v. c #93DB6C",
"b. c #94DC6C",
"n. c #94DC6D",
"m. c #94DD6D",
"M. c #95DF6D",
"N. c #97E16F",
"B. c #97E26E",
"V. c #98E36F",
"C. c #98E270",
"Z. c #9AE670",
"A. c #9AE770",
"S. c #9BE671",
"D. c #9BE573",
"F. c #9BE772",
"G. c #9BE971",
"H. c #9CE872",
"J. c #9CE972",
"K. c #9CE973",
"L. c #9DEB72",
"P. c #9DEA73",
"I. c #9EED73",
"U. c #9EE975",
"Y. c #9DEB74",
"T. c #9EEB74",
"R. c #9FEA76",
"E. c #9FED75",
"W. c #9FEC76",
"Q. c #9FED76",
"!. c #A0EF75",
"~. c #A0ED76",
"^. c #A0ED77",
"/. c #A1EF77",
"(. c #A0F075",
"). c #A1F175",
"_. c #A1F077",
"`. c #A2F177",
"'. c #A1F276",
"]. c #A2F276",
"[. c #A2F376",
"{. c #A3F377",
"}. c #A3F477",
"|. c #A4F577",
" X c #A2F278",
".X c #A3F278",
"XX c #A3F378",
"oX c #A4F378",
"OX c #A4F478",
"+X c #A4F578",
"@X c #A4F579",
"#X c #A4F678",
"$X c #A5F678",
"%X c #A5F778",
"&X c #A5F679",
"*X c #A5F779",
"=X c #A6F77A",
"-X c #A6F879",
";X c #A6F979",
":X c #A6F87A",
">X c #A6F97A",
",X c #A7F97A",
"<X c #A7FA7A",
"1X c #A7FB7A",
"2X c #A8FB7A",
"3X c #A8FA7B",
"4X c #A8FB7B",
"5X c #A8FC7A",
"6X c #A8FC7B",
"7X c #A9FC7B",
"8X c #A9FD7B",
"9X c #A9FE7B",
"0X c #A9FD7C",
"qX c #A9FE7C",
"wX c #AAFE7C",
"eX c #AAFF7C",
"rX c #ABFF7C",
"tX c #ABFF7D",
"yX c #ACFF7D",
"uX c #ACFF7E",
"iX c #ADFF7E",
"pX c #AEFF7F",
/* pixels */
"                                                                                                                                ",
"                                                                                                                                ",
"                                                                                                                                ",
"                                                                                                                                ",
"                                                                                                                                ",
"                                                                                                                                ",
"                                                      T./.&X&X&X.XW.                                                            ",
"                                                ^.&X4XqXqXqX7XqXqXqX7X<X`.                                                      ",
"                                            T.<X7XyXyXqXyXqXqX7XqXqXyX7XyX7X`.                                                  ",
"                                          &X7X7XqXqX7X7X7X7XyXyXyX7XyXqXqX7XqX4X^.                                              ",
"                                        <XqXyXyXqXyXqXyXqXyX7XqX7XyX7XqXqXyX7XyX7XW.                                            ",
"                                      4X7XqX7XqXqX7X7XyXqX7XyXqXqXqX7XyX7XyXqXqX7X7XN.                                          ",
"                                    4XqXqX7X7XyXyXyX7XqXqXyX7X7XyX7XqXyX7XqXyX7X7XqX7Xl.                                        ",
"                                  <X7XqXyXyXqXqX7XqX7XyX7XyXqXyXyXqX7XyX7XyXqX7XyXqXyXqX5.                                      ",
"                                {.qX7XyX7XqXyX7XqX7XqXyX7XqXyXqX7X7XqXqXqXqXyXyX7X7XqXqX<X'                                     ",
"                              W.7XyXqXqX7XyXqX7XyXyXqX7XyXqX7X7XqXyXyX7XyX7X7XqXqXyXyX7XqXP.                                    ",
"                              4X7XqXqXyX7X7XqXyXyX7XqXqXyX7XqXyXqX7X7XyX7XyXyXqX7XyXyXqXyXqX7.                                  ",
"                            `.yXyXqX7XyXqXyXqX7XqX7XyX7XyXqX7XyXyXyXqXqXqXqX7X7XqXqX7X7X7X7X&XZ                                 ",
"                            <XqX7X7XqXqXyXqXyX7XqXyX7XyX7X7XqXqX7XqXyX7XyX7XqXyXyX7XqXyXqXyXyXw.                                ",
"                          `.qXqXqXyXyX7X7X7XyXqX7XyXqXqXqXyXyX7X7XyXqX7XyXqX7XyXyXqX7XyXqX7XqX|.b                               ",
"                          4XyXqX7XyXyXqXqXqXyX7XqXyX7X7X7XyXyXqXqXqXyX7XyX7XqXqX7X7XqXyXqXyX7XqX2.                              ",
"                          7X7X7XqXqX7X7XyX7XyXqX7XyXqXyXqXqX7X7XyX7XyXqXqX7XyX7XqXyXqX7X7XyXqXyXS.                              ",
"                        &X7XqXyXyX7XqXyX7XyX7XqX7XqXyXqXyX7XqXyXyXqX7XqXqXyX7XyXyXqXyX7X7XqXyXqX<XI                             ",
"                        4XqX7XyXyXqX7XyXqXqX7XyXyXqX7X7XyXqX7XyX7X7X<X_ p.yXqXqX7X7XyXqXyXqX7X7XqX<.                            ",
"                        7X7XqXqX7X7XqXyXyX7XqXyXyXyXyXyXqXqXqXqXqXyX}.i 1.yXqXqXyX7XqXqXyX7XqXyXyXn.                            ",
"                      ^.yXqXyX7XqXyXqX7XqX7X7X8.| X.$.i.<XyXyX7XyX`.=.8 _ }.7XyXqX7XyX7XyXqX7XyXqX`.                            ",
"                      .XyX7XqX7XyXqXyX7XqXyX#Xp X ; % > B I.qXyXP.l & & % B 7X7XqXyX7XyX7X7XqXqXqX4XF                           ",
"                      &XqX7XyXyX7X7XyXqXqXqX}.r x e.3.V O D qXyX! 1 { e._ K <XqX7XyXqXqXqXyXyX7XqXqX .                          ",
"                      <XqXqX7XqXqXyX7XqXyX7X|.t K yXyX7XD > i.qXk k qXyXyX4X7X7XqXyX7X7X7XyXyXqXqX7X<.                          ",
"                      <XqXqXyXqXqX7XyXqXyXqX}.t F yXqXyXh.3 / yXk d 4X7X7XqXyXqX7XyXqXyXqXqX7X7XyXyX0.                          ",
"                      4XyXyX7X7XyXyX7X7X7X7X|.t F yXyXyX`.q M yXE O ! `.yX7X7XqX7XqXyXqXyX7XqXyXqXyXa.                          ",
"                      7X7XqXqXyX7XqXqXyXqXyX|.t F yXqXqX7Xd k 7XV.d o t @.<X7XyXyXqX7X7XyXqXqXyXqXqXv.                          ",
"                      6X7XyXyXqX7XyXyXqXyXqX|.r F yXqXqX7Xf l 7XyXP.T 7 o K 4XyX7XqXyXyX7XqXyX7XqXyXc.                          ",
"                      7XqXqX7X7XqXqX7X7X7XqX|.r F yXyXqX%Xt n 7XrX7XyXM.j ; q.yXyXqX7XqX7XyXqX7XyXqXn.                          ",
"                      7XyX7XqXyXyX7XqXyXqXyX|.r F yXqXyXV.6 ! yX7X7XyXyXi.> { yXyX7XqX7XqXqXyXyXqXyXh.                          ",
"                      7XyXqX7XyXyXqX7XyXqX7X|.t F yXyXyX[ - 3.rXrXyXqXyXl.3 o.yXqX7XyXyXyX7X7XqXqXyXe.                          ",
"                      <XyX7XqXqX7X7XqXyX7XqX|.t A }.P.=.5 g |.`.R 3.^.P.F 3 i.qXyX7XqXqXqX7X7XyXyXqX4.                          ",
"                      &XqX7XyX7XqXyXqX7XyXqX|.t ; w 8 @ i l.yX`.a & q 8 % Y 7XqXqX7XyX7XyXyXqXqXqXyX&.                          ",
"                      &XqXyX7XyXyXqXyX7XyX7X<X_ v v B { P.yXyXqXc.Y > z :.<XyX7XqXyX7XyX7XqXyX7XqX7X/                           ",
"                      .X7XyXqXqX7X7XyXqXqXqXqXyXqXqXyXyXyXqX7X7XyXN.e l.yX7XyXqX7XyXqXqX7XyXqX7XyX|.m                           ",
"                        7XqXyX7XqXyX7XqXyXyX7XqXyX7XqXqXyX7XqXyXqXl.g A.yXqXyXyX7X7XqXyX7XqXyXyXqXP.                            ",
"                        7XqXqX7XqX7XyXqX7XqX7XyXqX7XyX7XyXqX7XyXyX<XV.7XqX7X7XqXqXyXqX7XyXqX7XqXyXa.                            ",
"                        <XqXyXyXyXyX7X7XqX7XqXyXqXyX7XyX7X7XqXqX7XyXqXqXqXyX7XyXyXqXyX7XyX7XqXqXqXO.                            ",
"                        ^.qX7XqX7XqXqXyXyXyXqX7X7XyXqXqXqXyXyX7XqXqX7XyX7XyXqXqX7X7XyXqXqX7XyXyXoX                              ",
"                          7XqXqXyXqXqX7X7X7XqXyXqXyX7X7X7XyXyXqXyX7XqXyX7XqXyX7XqXyX7XqXyX7XqXqXl.                              ",
"                          &XyX7X7X7XyXyXqXyXqX7X7XyXqXyXqXqX7X7XyXqX7XyX7XyXqX7XqX7XyXqXyXqX7X7X'                               ",
"                            7X7XqXyX7XqXyXqXyX7X7XqXyXqXyX7XqXyX7X7XqXqXqXqXyXyXyXyX7X7X7X7XyXP.                                ",
"                            <XyXqX7XyXqX7X7XyXqXyXqX7X7XyXqX7XyXqXyXyX7XyX7X7XqX7XqXqXyXqXyX7X;.                                ",
"                              7X7XqXyXyX7XqXyX7XqXqXyX7XyX7XqXqXyXqXqX7XqX7X7XyX7XyXyXqXyXqXT.                                  ",
"                              &XyXqX7XqX7XyXqX7XyX7XyXqXqX7XyX7X7X7XyXyXyXyXqXqXqXqX7X7X7X7X'                                   ",
"                                4X7XyXqXqXqXyXyX7XyX7XqXqXyX7XyXqXyX7XqX7XqXyX7XyX7XqXyXyXg.                                    ",
"                                ^.7X7XqXyX7X7XqXqXqX7XyX7XyXqXqXqX7XyXqX7XyXqX7XyXqX7XqXW.                                      ",
"                                  .XqXqXqX7X7XyXyX7XqXyX7XqXyX7XyXyX7XqX7XqXyXyX7X7XyX|.~                                       ",
"                                    &X7XyXyXqXqXyXqX7XyX7XyXqX7X7XqX7XyXyXqX7XqXqXyX<Xo.                                        ",
"                                      oX7XqXyX7X7X7XqXqXqXqXyXyXqX7XqXyXyX7X7XrX7X&X#.                                          ",
"                                        `.7XqXqXqXyXyX7XyX7X7XqXyXyXqX7XqX7XyXqX`.)                                             ",
"                                          S..XqX7XyXqXqXqXqXqXyX7XqX7XqXyXqX7Xn.V                                               ",
"                                              h.|.qXyXqXyXyXqXqX7XyXyXqX7XG.O.                                                  ",
"                                                  2.C.|.4X7XqXqX7X<XW.g.'                                                       ",
"                                                      N ~ #.=.;. .I                                                             ",
"                                                                                                                                ",
"                                                                                                                                ",
"                                                                                                                                ",
"                                                                                                                                "
};
